<mxfile host="app.diagrams.net" modified="2021-10-05T05:39:31.538Z" agent="5.0 (Windows NT 10.0; Win64; x64) AppleWebKit/537.36 (KHTML, like Gecko) Chrome/90.0.4430.232 Whale/2.10.124.26 Safari/537.36" etag="7D31Y9i4VfBH76uBw7Sq" version="15.4.1" type="github" pages="6">
  <diagram id="C5RBs43oDa-KdzZeNtuy" name="Page-1">
    <mxGraphModel dx="410" dy="749" grid="1" gridSize="10" guides="1" tooltips="1" connect="1" arrows="1" fold="1" page="1" pageScale="1" pageWidth="827" pageHeight="1169" math="0" shadow="0">
      <root>
        <mxCell id="WIyWlLk6GJQsqaUBKTNV-0" />
        <mxCell id="WIyWlLk6GJQsqaUBKTNV-1" parent="WIyWlLk6GJQsqaUBKTNV-0" />
        <mxCell id="WIyWlLk6GJQsqaUBKTNV-2" value="" style="rounded=0;html=1;jettySize=auto;orthogonalLoop=1;fontSize=11;endArrow=block;endFill=0;endSize=8;strokeWidth=1;shadow=0;labelBackgroundColor=none;edgeStyle=orthogonalEdgeStyle;entryX=0.5;entryY=0;entryDx=0;entryDy=0;" parent="WIyWlLk6GJQsqaUBKTNV-1" source="WIyWlLk6GJQsqaUBKTNV-3" target="iiuZMrqm5bic0TZSI16R-0" edge="1">
          <mxGeometry relative="1" as="geometry" />
        </mxCell>
        <mxCell id="WIyWlLk6GJQsqaUBKTNV-3" value="Main Login Page" style="rounded=1;whiteSpace=wrap;html=1;fontSize=12;glass=0;strokeWidth=1;shadow=0;" parent="WIyWlLk6GJQsqaUBKTNV-1" vertex="1">
          <mxGeometry x="390" y="10" width="120" height="40" as="geometry" />
        </mxCell>
        <mxCell id="WIyWlLk6GJQsqaUBKTNV-5" value="No" style="edgeStyle=orthogonalEdgeStyle;rounded=0;html=1;jettySize=auto;orthogonalLoop=1;fontSize=11;endArrow=block;endFill=0;endSize=8;strokeWidth=1;shadow=0;labelBackgroundColor=none;exitX=0.75;exitY=1;exitDx=0;exitDy=0;" parent="WIyWlLk6GJQsqaUBKTNV-1" source="iiuZMrqm5bic0TZSI16R-4" target="iiuZMrqm5bic0TZSI16R-7" edge="1">
          <mxGeometry y="10" relative="1" as="geometry">
            <mxPoint as="offset" />
            <mxPoint x="480" y="290" as="sourcePoint" />
            <mxPoint x="620" y="310" as="targetPoint" />
            <Array as="points">
              <mxPoint x="480" y="310" />
            </Array>
          </mxGeometry>
        </mxCell>
        <mxCell id="WIyWlLk6GJQsqaUBKTNV-9" value="Yes" style="edgeStyle=orthogonalEdgeStyle;rounded=0;html=1;jettySize=auto;orthogonalLoop=1;fontSize=11;endArrow=block;endFill=0;endSize=8;strokeWidth=1;shadow=0;labelBackgroundColor=none;exitX=0.25;exitY=1;exitDx=0;exitDy=0;" parent="WIyWlLk6GJQsqaUBKTNV-1" source="iiuZMrqm5bic0TZSI16R-4" edge="1">
          <mxGeometry y="-10" relative="1" as="geometry">
            <mxPoint as="offset" />
            <mxPoint x="450" y="310" as="sourcePoint" />
            <mxPoint x="320" y="360" as="targetPoint" />
            <Array as="points">
              <mxPoint x="420" y="310" />
            </Array>
          </mxGeometry>
        </mxCell>
        <mxCell id="iiuZMrqm5bic0TZSI16R-6" value="" style="edgeStyle=orthogonalEdgeStyle;rounded=0;orthogonalLoop=1;jettySize=auto;html=1;" edge="1" parent="WIyWlLk6GJQsqaUBKTNV-1" source="iiuZMrqm5bic0TZSI16R-0" target="iiuZMrqm5bic0TZSI16R-4">
          <mxGeometry relative="1" as="geometry" />
        </mxCell>
        <mxCell id="iiuZMrqm5bic0TZSI16R-0" value="Input Login value" style="shape=parallelogram;perimeter=parallelogramPerimeter;whiteSpace=wrap;html=1;fixedSize=1;" vertex="1" parent="WIyWlLk6GJQsqaUBKTNV-1">
          <mxGeometry x="390" y="100" width="120" height="60" as="geometry" />
        </mxCell>
        <mxCell id="iiuZMrqm5bic0TZSI16R-4" value="If Login value is True" style="rounded=0;whiteSpace=wrap;html=1;" vertex="1" parent="WIyWlLk6GJQsqaUBKTNV-1">
          <mxGeometry x="390" y="200" width="120" height="60" as="geometry" />
        </mxCell>
        <mxCell id="iiuZMrqm5bic0TZSI16R-7" value="Login Fali" style="rounded=0;whiteSpace=wrap;html=1;" vertex="1" parent="WIyWlLk6GJQsqaUBKTNV-1">
          <mxGeometry x="560" y="280" width="120" height="60" as="geometry" />
        </mxCell>
        <mxCell id="iiuZMrqm5bic0TZSI16R-8" value="Next()" style="rhombus;whiteSpace=wrap;html=1;" vertex="1" parent="WIyWlLk6GJQsqaUBKTNV-1">
          <mxGeometry x="280" y="360" width="80" height="80" as="geometry" />
        </mxCell>
      </root>
    </mxGraphModel>
  </diagram>
  <diagram id="1_Rg0p94kLKzg8fjbBq0" name="Page-2">
    <mxGraphModel dx="410" dy="749" grid="1" gridSize="10" guides="1" tooltips="1" connect="1" arrows="1" fold="1" page="1" pageScale="1" pageWidth="827" pageHeight="1169" math="0" shadow="0">
      <root>
        <mxCell id="ik5cSOxXgnn4qOsbJCbP-0" />
        <mxCell id="ik5cSOxXgnn4qOsbJCbP-1" parent="ik5cSOxXgnn4qOsbJCbP-0" />
        <mxCell id="qmCeC_T6x2uUOywkQYaT-0" value="" style="rounded=0;html=1;jettySize=auto;orthogonalLoop=1;fontSize=11;endArrow=block;endFill=0;endSize=8;strokeWidth=1;shadow=0;labelBackgroundColor=none;edgeStyle=orthogonalEdgeStyle;entryX=0.5;entryY=0;entryDx=0;entryDy=0;" edge="1" parent="ik5cSOxXgnn4qOsbJCbP-1" source="qmCeC_T6x2uUOywkQYaT-1" target="qmCeC_T6x2uUOywkQYaT-5">
          <mxGeometry relative="1" as="geometry" />
        </mxCell>
        <mxCell id="qmCeC_T6x2uUOywkQYaT-1" value="Next()" style="rounded=1;whiteSpace=wrap;html=1;fontSize=12;glass=0;strokeWidth=1;shadow=0;" vertex="1" parent="ik5cSOxXgnn4qOsbJCbP-1">
          <mxGeometry x="360" y="200" width="120" height="40" as="geometry" />
        </mxCell>
        <mxCell id="qmCeC_T6x2uUOywkQYaT-4" value="" style="edgeStyle=orthogonalEdgeStyle;rounded=0;orthogonalLoop=1;jettySize=auto;html=1;entryX=0.5;entryY=0;entryDx=0;entryDy=0;" edge="1" parent="ik5cSOxXgnn4qOsbJCbP-1" source="qmCeC_T6x2uUOywkQYaT-5" target="qmCeC_T6x2uUOywkQYaT-8">
          <mxGeometry relative="1" as="geometry">
            <mxPoint x="420" y="390" as="targetPoint" />
            <Array as="points">
              <mxPoint x="420" y="370" />
              <mxPoint x="245" y="370" />
            </Array>
          </mxGeometry>
        </mxCell>
        <mxCell id="qmCeC_T6x2uUOywkQYaT-5" value="Switch(_currentIndexPage)" style="shape=parallelogram;perimeter=parallelogramPerimeter;whiteSpace=wrap;html=1;fixedSize=1;" vertex="1" parent="ik5cSOxXgnn4qOsbJCbP-1">
          <mxGeometry x="310" y="290" width="220" height="60" as="geometry" />
        </mxCell>
        <mxCell id="qmCeC_T6x2uUOywkQYaT-8" value="Home()" style="rhombus;whiteSpace=wrap;html=1;" vertex="1" parent="ik5cSOxXgnn4qOsbJCbP-1">
          <mxGeometry x="190" y="390" width="110" height="80" as="geometry" />
        </mxCell>
        <mxCell id="qmCeC_T6x2uUOywkQYaT-13" value="" style="edgeStyle=orthogonalEdgeStyle;rounded=0;orthogonalLoop=1;jettySize=auto;html=1;" edge="1" parent="ik5cSOxXgnn4qOsbJCbP-1" source="qmCeC_T6x2uUOywkQYaT-9" target="qmCeC_T6x2uUOywkQYaT-5">
          <mxGeometry relative="1" as="geometry" />
        </mxCell>
        <mxCell id="qmCeC_T6x2uUOywkQYaT-9" value="Body()" style="rhombus;whiteSpace=wrap;html=1;" vertex="1" parent="ik5cSOxXgnn4qOsbJCbP-1">
          <mxGeometry x="440" y="390" width="110" height="80" as="geometry" />
        </mxCell>
        <mxCell id="qmCeC_T6x2uUOywkQYaT-14" style="edgeStyle=orthogonalEdgeStyle;rounded=0;orthogonalLoop=1;jettySize=auto;html=1;exitX=0.5;exitY=0;exitDx=0;exitDy=0;entryX=0.5;entryY=1;entryDx=0;entryDy=0;" edge="1" parent="ik5cSOxXgnn4qOsbJCbP-1" source="qmCeC_T6x2uUOywkQYaT-10" target="qmCeC_T6x2uUOywkQYaT-5">
          <mxGeometry relative="1" as="geometry">
            <mxPoint x="520" y="340" as="targetPoint" />
          </mxGeometry>
        </mxCell>
        <mxCell id="qmCeC_T6x2uUOywkQYaT-10" value="Board()" style="rhombus;whiteSpace=wrap;html=1;" vertex="1" parent="ik5cSOxXgnn4qOsbJCbP-1">
          <mxGeometry x="560" y="390" width="110" height="80" as="geometry" />
        </mxCell>
        <mxCell id="qmCeC_T6x2uUOywkQYaT-12" value="" style="edgeStyle=orthogonalEdgeStyle;rounded=0;orthogonalLoop=1;jettySize=auto;html=1;" edge="1" parent="ik5cSOxXgnn4qOsbJCbP-1" source="qmCeC_T6x2uUOywkQYaT-11" target="qmCeC_T6x2uUOywkQYaT-5">
          <mxGeometry relative="1" as="geometry" />
        </mxCell>
        <mxCell id="qmCeC_T6x2uUOywkQYaT-11" value="CalendarTwo()" style="rhombus;whiteSpace=wrap;html=1;" vertex="1" parent="ik5cSOxXgnn4qOsbJCbP-1">
          <mxGeometry x="320" y="390" width="110" height="80" as="geometry" />
        </mxCell>
      </root>
    </mxGraphModel>
  </diagram>
  <diagram id="PZpNNj59TyzhlDZa2DNu" name="Page-3">
    <mxGraphModel dx="482" dy="881" grid="1" gridSize="10" guides="1" tooltips="1" connect="1" arrows="1" fold="1" page="1" pageScale="1" pageWidth="827" pageHeight="1169" math="0" shadow="0">
      <root>
        <mxCell id="N4houZ8-85xpbRFse-nw-0" />
        <mxCell id="N4houZ8-85xpbRFse-nw-1" parent="N4houZ8-85xpbRFse-nw-0" />
        <mxCell id="_eWCUkDnVs2ME6b3_Df_-0" value="" style="rounded=0;html=1;jettySize=auto;orthogonalLoop=1;fontSize=11;endArrow=block;endFill=0;endSize=8;strokeWidth=1;shadow=0;labelBackgroundColor=none;edgeStyle=orthogonalEdgeStyle;entryX=0.5;entryY=0;entryDx=0;entryDy=0;" edge="1" parent="N4houZ8-85xpbRFse-nw-1" source="_eWCUkDnVs2ME6b3_Df_-1">
          <mxGeometry relative="1" as="geometry">
            <mxPoint x="450" y="100" as="targetPoint" />
            <Array as="points" />
          </mxGeometry>
        </mxCell>
        <mxCell id="_eWCUkDnVs2ME6b3_Df_-1" value="Home()" style="rounded=1;whiteSpace=wrap;html=1;fontSize=12;glass=0;strokeWidth=1;shadow=0;" vertex="1" parent="N4houZ8-85xpbRFse-nw-1">
          <mxGeometry x="390" y="10" width="120" height="40" as="geometry" />
        </mxCell>
        <mxCell id="_eWCUkDnVs2ME6b3_Df_-7" value="Drawer()" style="rhombus;whiteSpace=wrap;html=1;" vertex="1" parent="N4houZ8-85xpbRFse-nw-1">
          <mxGeometry x="220" y="100" width="140" height="80" as="geometry" />
        </mxCell>
        <mxCell id="_eWCUkDnVs2ME6b3_Df_-11" value="" style="rounded=0;html=1;jettySize=auto;orthogonalLoop=1;fontSize=11;endArrow=block;endFill=0;endSize=8;strokeWidth=1;shadow=0;labelBackgroundColor=none;edgeStyle=orthogonalEdgeStyle;entryX=0.5;entryY=0;entryDx=0;entryDy=0;exitX=0;exitY=0.5;exitDx=0;exitDy=0;" edge="1" parent="N4houZ8-85xpbRFse-nw-1" source="_eWCUkDnVs2ME6b3_Df_-1">
          <mxGeometry relative="1" as="geometry">
            <mxPoint x="460" y="60" as="sourcePoint" />
            <mxPoint x="289.9999999999999" y="100" as="targetPoint" />
            <Array as="points">
              <mxPoint x="290" y="30" />
            </Array>
          </mxGeometry>
        </mxCell>
        <mxCell id="_eWCUkDnVs2ME6b3_Df_-13" value="" style="rounded=0;html=1;jettySize=auto;orthogonalLoop=1;fontSize=11;endArrow=block;endFill=0;endSize=8;strokeWidth=1;shadow=0;labelBackgroundColor=none;edgeStyle=orthogonalEdgeStyle;entryX=0.5;entryY=0;entryDx=0;entryDy=0;exitX=1;exitY=0.5;exitDx=0;exitDy=0;" edge="1" parent="N4houZ8-85xpbRFse-nw-1" source="_eWCUkDnVs2ME6b3_Df_-1" target="_eWCUkDnVs2ME6b3_Df_-17">
          <mxGeometry relative="1" as="geometry">
            <mxPoint x="719.9999999999999" y="30" as="sourcePoint" />
            <mxPoint x="610" y="100" as="targetPoint" />
            <Array as="points">
              <mxPoint x="615" y="30" />
            </Array>
          </mxGeometry>
        </mxCell>
        <mxCell id="_eWCUkDnVs2ME6b3_Df_-19" value="" style="edgeStyle=orthogonalEdgeStyle;rounded=0;orthogonalLoop=1;jettySize=auto;html=1;" edge="1" parent="N4houZ8-85xpbRFse-nw-1" source="_eWCUkDnVs2ME6b3_Df_-16" target="_eWCUkDnVs2ME6b3_Df_-18">
          <mxGeometry relative="1" as="geometry" />
        </mxCell>
        <mxCell id="_eWCUkDnVs2ME6b3_Df_-16" value="Recipe()" style="rhombus;whiteSpace=wrap;html=1;" vertex="1" parent="N4houZ8-85xpbRFse-nw-1">
          <mxGeometry x="380" y="100" width="140" height="80" as="geometry" />
        </mxCell>
        <mxCell id="_eWCUkDnVs2ME6b3_Df_-17" value="DropDownMenu()" style="rhombus;whiteSpace=wrap;html=1;" vertex="1" parent="N4houZ8-85xpbRFse-nw-1">
          <mxGeometry x="540" y="100" width="150" height="80" as="geometry" />
        </mxCell>
        <mxCell id="_eWCUkDnVs2ME6b3_Df_-18" value="Recipe Page" style="whiteSpace=wrap;html=1;" vertex="1" parent="N4houZ8-85xpbRFse-nw-1">
          <mxGeometry x="390" y="270" width="120" height="60" as="geometry" />
        </mxCell>
        <mxCell id="_eWCUkDnVs2ME6b3_Df_-21" value="" style="edgeStyle=orthogonalEdgeStyle;rounded=0;orthogonalLoop=1;jettySize=auto;html=1;exitX=0.5;exitY=1;exitDx=0;exitDy=0;" edge="1" parent="N4houZ8-85xpbRFse-nw-1" target="_eWCUkDnVs2ME6b3_Df_-22" source="_eWCUkDnVs2ME6b3_Df_-7">
          <mxGeometry relative="1" as="geometry">
            <mxPoint x="290" y="190" as="sourcePoint" />
          </mxGeometry>
        </mxCell>
        <mxCell id="_eWCUkDnVs2ME6b3_Df_-22" value="Settings Page" style="whiteSpace=wrap;html=1;" vertex="1" parent="N4houZ8-85xpbRFse-nw-1">
          <mxGeometry x="230" y="270" width="120" height="60" as="geometry" />
        </mxCell>
        <mxCell id="_eWCUkDnVs2ME6b3_Df_-23" value="" style="edgeStyle=orthogonalEdgeStyle;rounded=0;orthogonalLoop=1;jettySize=auto;html=1;" edge="1" parent="N4houZ8-85xpbRFse-nw-1" target="_eWCUkDnVs2ME6b3_Df_-24">
          <mxGeometry relative="1" as="geometry">
            <mxPoint x="615" y="180" as="sourcePoint" />
          </mxGeometry>
        </mxCell>
        <mxCell id="_eWCUkDnVs2ME6b3_Df_-24" value="Category Page" style="whiteSpace=wrap;html=1;" vertex="1" parent="N4houZ8-85xpbRFse-nw-1">
          <mxGeometry x="555" y="270" width="120" height="60" as="geometry" />
        </mxCell>
      </root>
    </mxGraphModel>
  </diagram>
  <diagram id="1ChWdlfcG0p8fflOrqF3" name="Page-4">
    <mxGraphModel dx="410" dy="749" grid="1" gridSize="10" guides="1" tooltips="1" connect="1" arrows="1" fold="1" page="1" pageScale="1" pageWidth="827" pageHeight="1169" math="0" shadow="0">
      <root>
        <mxCell id="mk450zLrFNV2TbCXA8QJ-0" />
        <mxCell id="mk450zLrFNV2TbCXA8QJ-1" parent="mk450zLrFNV2TbCXA8QJ-0" />
        <mxCell id="SeyjMfXTxHZp3yzSz2PF-1" value="CalendarTwo()" style="rounded=1;whiteSpace=wrap;html=1;fontSize=12;glass=0;strokeWidth=1;shadow=0;" vertex="1" parent="mk450zLrFNV2TbCXA8QJ-1">
          <mxGeometry x="390" y="10" width="120" height="40" as="geometry" />
        </mxCell>
        <mxCell id="SeyjMfXTxHZp3yzSz2PF-4" value="" style="edgeStyle=orthogonalEdgeStyle;rounded=0;orthogonalLoop=1;jettySize=auto;html=1;exitX=0.5;exitY=1;exitDx=0;exitDy=0;" edge="1" parent="mk450zLrFNV2TbCXA8QJ-1" source="SeyjMfXTxHZp3yzSz2PF-1" target="SeyjMfXTxHZp3yzSz2PF-6">
          <mxGeometry relative="1" as="geometry">
            <mxPoint x="450" y="180" as="sourcePoint" />
          </mxGeometry>
        </mxCell>
        <mxCell id="SeyjMfXTxHZp3yzSz2PF-6" value="Calendar Page" style="whiteSpace=wrap;html=1;" vertex="1" parent="mk450zLrFNV2TbCXA8QJ-1">
          <mxGeometry x="390" y="140" width="120" height="60" as="geometry" />
        </mxCell>
        <mxCell id="SeyjMfXTxHZp3yzSz2PF-11" value="" style="edgeStyle=orthogonalEdgeStyle;rounded=0;orthogonalLoop=1;jettySize=auto;html=1;exitX=0;exitY=0.5;exitDx=0;exitDy=0;entryX=0.5;entryY=0;entryDx=0;entryDy=0;entryPerimeter=0;" edge="1" parent="mk450zLrFNV2TbCXA8QJ-1" source="SeyjMfXTxHZp3yzSz2PF-1">
          <mxGeometry relative="1" as="geometry">
            <mxPoint x="380" y="140" as="sourcePoint" />
            <mxPoint x="280" y="140" as="targetPoint" />
            <Array as="points">
              <mxPoint x="280" y="30" />
            </Array>
          </mxGeometry>
        </mxCell>
        <mxCell id="SeyjMfXTxHZp3yzSz2PF-16" value="" style="edgeStyle=orthogonalEdgeStyle;rounded=0;orthogonalLoop=1;jettySize=auto;html=1;entryX=0.5;entryY=0;entryDx=0;entryDy=0;" edge="1" parent="mk450zLrFNV2TbCXA8QJ-1" target="qjlsycpeFlXNfnJqbSks-0">
          <mxGeometry relative="1" as="geometry">
            <mxPoint x="280" y="200" as="sourcePoint" />
            <mxPoint x="280" y="270" as="targetPoint" />
          </mxGeometry>
        </mxCell>
        <mxCell id="SeyjMfXTxHZp3yzSz2PF-21" value="" style="edgeStyle=orthogonalEdgeStyle;rounded=0;orthogonalLoop=1;jettySize=auto;html=1;" edge="1" parent="mk450zLrFNV2TbCXA8QJ-1" target="SeyjMfXTxHZp3yzSz2PF-20">
          <mxGeometry relative="1" as="geometry">
            <mxPoint x="620" y="200" as="sourcePoint" />
          </mxGeometry>
        </mxCell>
        <mxCell id="SeyjMfXTxHZp3yzSz2PF-19" value="" style="edgeStyle=orthogonalEdgeStyle;rounded=0;orthogonalLoop=1;jettySize=auto;html=1;exitX=1;exitY=0.5;exitDx=0;exitDy=0;entryX=0.5;entryY=0;entryDx=0;entryDy=0;" edge="1" parent="mk450zLrFNV2TbCXA8QJ-1" source="SeyjMfXTxHZp3yzSz2PF-1" target="SeyjMfXTxHZp3yzSz2PF-22">
          <mxGeometry relative="1" as="geometry">
            <mxPoint x="640" y="40" as="sourcePoint" />
            <mxPoint x="634" y="140" as="targetPoint" />
            <Array as="points">
              <mxPoint x="625" y="30" />
            </Array>
          </mxGeometry>
        </mxCell>
        <mxCell id="SeyjMfXTxHZp3yzSz2PF-20" value="AddEventPage()" style="rhombus;whiteSpace=wrap;html=1;" vertex="1" parent="mk450zLrFNV2TbCXA8QJ-1">
          <mxGeometry x="565" y="270" width="110" height="80" as="geometry" />
        </mxCell>
        <mxCell id="SeyjMfXTxHZp3yzSz2PF-22" value="&lt;span&gt;Add Memo&lt;/span&gt;" style="shape=parallelogram;perimeter=parallelogramPerimeter;whiteSpace=wrap;html=1;fixedSize=1;" vertex="1" parent="mk450zLrFNV2TbCXA8QJ-1">
          <mxGeometry x="565" y="140" width="120" height="60" as="geometry" />
        </mxCell>
        <mxCell id="SeyjMfXTxHZp3yzSz2PF-23" value="&lt;span&gt;BackSpace&lt;/span&gt;" style="shape=parallelogram;perimeter=parallelogramPerimeter;whiteSpace=wrap;html=1;fixedSize=1;" vertex="1" parent="mk450zLrFNV2TbCXA8QJ-1">
          <mxGeometry x="220" y="140" width="120" height="60" as="geometry" />
        </mxCell>
        <mxCell id="qjlsycpeFlXNfnJqbSks-0" value="&lt;span&gt;LoginPage&lt;/span&gt;" style="rounded=0;whiteSpace=wrap;html=1;" vertex="1" parent="mk450zLrFNV2TbCXA8QJ-1">
          <mxGeometry x="220" y="280" width="120" height="60" as="geometry" />
        </mxCell>
      </root>
    </mxGraphModel>
  </diagram>
  <diagram id="iICOLWN-34_yVu8Cv0Lr" name="Page-5">
    <mxGraphModel dx="1237" dy="749" grid="1" gridSize="10" guides="1" tooltips="1" connect="1" arrows="1" fold="1" page="1" pageScale="1" pageWidth="827" pageHeight="1169" math="0" shadow="0">
      <root>
        <mxCell id="xBh7MiWeOq3aU365Sjh8-0" />
        <mxCell id="xBh7MiWeOq3aU365Sjh8-1" parent="xBh7MiWeOq3aU365Sjh8-0" />
        <mxCell id="TzoQzzRUTgERNXM3_yXV-6" value="" style="edgeStyle=orthogonalEdgeStyle;rounded=0;orthogonalLoop=1;jettySize=auto;html=1;entryX=0.5;entryY=0;entryDx=0;entryDy=0;" edge="1" parent="xBh7MiWeOq3aU365Sjh8-1" source="Rj2t2eoGi116gOrh6ZsF-0" target="TzoQzzRUTgERNXM3_yXV-7">
          <mxGeometry relative="1" as="geometry">
            <mxPoint x="200" y="180" as="targetPoint" />
          </mxGeometry>
        </mxCell>
        <mxCell id="Rj2t2eoGi116gOrh6ZsF-0" value="Board()" style="rounded=1;whiteSpace=wrap;html=1;" vertex="1" parent="xBh7MiWeOq3aU365Sjh8-1">
          <mxGeometry x="140" y="40" width="120" height="60" as="geometry" />
        </mxCell>
        <mxCell id="TzoQzzRUTgERNXM3_yXV-7" value="&amp;nbsp;Community Page" style="rounded=0;whiteSpace=wrap;html=1;" vertex="1" parent="xBh7MiWeOq3aU365Sjh8-1">
          <mxGeometry x="140" y="190" width="120" height="60" as="geometry" />
        </mxCell>
        <mxCell id="TzoQzzRUTgERNXM3_yXV-8" value="" style="edgeStyle=orthogonalEdgeStyle;rounded=0;orthogonalLoop=1;jettySize=auto;html=1;exitX=1;exitY=0.5;exitDx=0;exitDy=0;entryX=0.5;entryY=0;entryDx=0;entryDy=0;" edge="1" parent="xBh7MiWeOq3aU365Sjh8-1" source="Rj2t2eoGi116gOrh6ZsF-0" target="TzoQzzRUTgERNXM3_yXV-17">
          <mxGeometry relative="1" as="geometry">
            <mxPoint x="210" y="110" as="sourcePoint" />
            <mxPoint x="354" y="190" as="targetPoint" />
          </mxGeometry>
        </mxCell>
        <mxCell id="TzoQzzRUTgERNXM3_yXV-12" value="" style="edgeStyle=orthogonalEdgeStyle;rounded=0;orthogonalLoop=1;jettySize=auto;html=1;exitX=0.5;exitY=1;exitDx=0;exitDy=0;" edge="1" parent="xBh7MiWeOq3aU365Sjh8-1" source="TzoQzzRUTgERNXM3_yXV-17" target="TzoQzzRUTgERNXM3_yXV-11">
          <mxGeometry relative="1" as="geometry">
            <mxPoint x="354" y="250" as="sourcePoint" />
          </mxGeometry>
        </mxCell>
        <mxCell id="TzoQzzRUTgERNXM3_yXV-11" value="writing Post Page" style="whiteSpace=wrap;html=1;" vertex="1" parent="xBh7MiWeOq3aU365Sjh8-1">
          <mxGeometry x="294" y="330" width="120" height="60" as="geometry" />
        </mxCell>
        <mxCell id="TzoQzzRUTgERNXM3_yXV-13" value="createPost()" style="rhombus;whiteSpace=wrap;html=1;" vertex="1" parent="xBh7MiWeOq3aU365Sjh8-1">
          <mxGeometry x="301" y="440" width="106" height="80" as="geometry" />
        </mxCell>
        <mxCell id="TzoQzzRUTgERNXM3_yXV-14" value="" style="edgeStyle=orthogonalEdgeStyle;rounded=0;orthogonalLoop=1;jettySize=auto;html=1;exitX=0.5;exitY=1;exitDx=0;exitDy=0;" edge="1" parent="xBh7MiWeOq3aU365Sjh8-1" source="TzoQzzRUTgERNXM3_yXV-11" target="TzoQzzRUTgERNXM3_yXV-11">
          <mxGeometry relative="1" as="geometry">
            <mxPoint x="364" y="260" as="sourcePoint" />
            <mxPoint x="364" y="340" as="targetPoint" />
          </mxGeometry>
        </mxCell>
        <mxCell id="TzoQzzRUTgERNXM3_yXV-16" value="" style="edgeStyle=orthogonalEdgeStyle;rounded=0;orthogonalLoop=1;jettySize=auto;html=1;exitX=0.5;exitY=1;exitDx=0;exitDy=0;entryX=0.5;entryY=0;entryDx=0;entryDy=0;" edge="1" parent="xBh7MiWeOq3aU365Sjh8-1" source="TzoQzzRUTgERNXM3_yXV-11" target="TzoQzzRUTgERNXM3_yXV-13">
          <mxGeometry relative="1" as="geometry">
            <mxPoint x="374" y="270" as="sourcePoint" />
            <mxPoint x="374" y="350" as="targetPoint" />
          </mxGeometry>
        </mxCell>
        <mxCell id="TzoQzzRUTgERNXM3_yXV-17" value="createPost()" style="rhombus;whiteSpace=wrap;html=1;" vertex="1" parent="xBh7MiWeOq3aU365Sjh8-1">
          <mxGeometry x="301" y="180" width="106" height="80" as="geometry" />
        </mxCell>
        <mxCell id="TzoQzzRUTgERNXM3_yXV-18" value="" style="edgeStyle=orthogonalEdgeStyle;rounded=0;orthogonalLoop=1;jettySize=auto;html=1;entryX=0.5;entryY=0;entryDx=0;entryDy=0;exitX=0;exitY=0.5;exitDx=0;exitDy=0;" edge="1" parent="xBh7MiWeOq3aU365Sjh8-1" target="TzoQzzRUTgERNXM3_yXV-19" source="Rj2t2eoGi116gOrh6ZsF-0">
          <mxGeometry relative="1" as="geometry">
            <mxPoint x="50" y="100" as="sourcePoint" />
            <mxPoint x="50" y="180" as="targetPoint" />
          </mxGeometry>
        </mxCell>
        <mxCell id="TzoQzzRUTgERNXM3_yXV-19" value="BackSpace" style="rounded=0;whiteSpace=wrap;html=1;" vertex="1" parent="xBh7MiWeOq3aU365Sjh8-1">
          <mxGeometry x="-10" y="190" width="120" height="60" as="geometry" />
        </mxCell>
        <mxCell id="TzoQzzRUTgERNXM3_yXV-20" value="" style="edgeStyle=orthogonalEdgeStyle;rounded=0;orthogonalLoop=1;jettySize=auto;html=1;exitX=0.5;exitY=1;exitDx=0;exitDy=0;entryX=0.5;entryY=0;entryDx=0;entryDy=0;" edge="1" parent="xBh7MiWeOq3aU365Sjh8-1" source="TzoQzzRUTgERNXM3_yXV-19" target="TzoQzzRUTgERNXM3_yXV-21">
          <mxGeometry relative="1" as="geometry">
            <mxPoint x="49.5" y="260" as="sourcePoint" />
            <mxPoint x="50" y="340" as="targetPoint" />
          </mxGeometry>
        </mxCell>
        <mxCell id="TzoQzzRUTgERNXM3_yXV-21" value="LoginPage" style="rounded=0;whiteSpace=wrap;html=1;" vertex="1" parent="xBh7MiWeOq3aU365Sjh8-1">
          <mxGeometry x="-10" y="340" width="120" height="60" as="geometry" />
        </mxCell>
      </root>
    </mxGraphModel>
  </diagram>
  <diagram id="VuSMuq7t_81CfOvtohSU" name="Page-6">
    <mxGraphModel dx="1237" dy="749" grid="1" gridSize="10" guides="1" tooltips="1" connect="1" arrows="1" fold="1" page="1" pageScale="1" pageWidth="827" pageHeight="1169" math="0" shadow="0">
      <root>
        <mxCell id="I-l6lPqi_V3V4UQrFhKZ-0" />
        <mxCell id="I-l6lPqi_V3V4UQrFhKZ-1" parent="I-l6lPqi_V3V4UQrFhKZ-0" />
        <mxCell id="Sy5_hC4Q0OgB84gOwmTH-0" value="" style="edgeStyle=orthogonalEdgeStyle;rounded=0;orthogonalLoop=1;jettySize=auto;html=1;entryX=0.5;entryY=0;entryDx=0;entryDy=0;" edge="1" parent="I-l6lPqi_V3V4UQrFhKZ-1" source="Sy5_hC4Q0OgB84gOwmTH-1" target="Sy5_hC4Q0OgB84gOwmTH-2">
          <mxGeometry relative="1" as="geometry">
            <mxPoint x="200" y="180" as="targetPoint" />
          </mxGeometry>
        </mxCell>
        <mxCell id="Sy5_hC4Q0OgB84gOwmTH-1" value="MyProfile()" style="rounded=1;whiteSpace=wrap;html=1;" vertex="1" parent="I-l6lPqi_V3V4UQrFhKZ-1">
          <mxGeometry x="140" y="40" width="120" height="60" as="geometry" />
        </mxCell>
        <mxCell id="Sy5_hC4Q0OgB84gOwmTH-2" value="ProfilePage" style="rounded=0;whiteSpace=wrap;html=1;" vertex="1" parent="I-l6lPqi_V3V4UQrFhKZ-1">
          <mxGeometry x="140" y="190" width="120" height="60" as="geometry" />
        </mxCell>
        <mxCell id="Sy5_hC4Q0OgB84gOwmTH-7" value="" style="edgeStyle=orthogonalEdgeStyle;rounded=0;orthogonalLoop=1;jettySize=auto;html=1;exitX=0.5;exitY=1;exitDx=0;exitDy=0;" edge="1" parent="I-l6lPqi_V3V4UQrFhKZ-1">
          <mxGeometry relative="1" as="geometry">
            <mxPoint x="354" y="390" as="sourcePoint" />
            <mxPoint x="354" y="390" as="targetPoint" />
          </mxGeometry>
        </mxCell>
        <mxCell id="Sy5_hC4Q0OgB84gOwmTH-8" value="" style="edgeStyle=orthogonalEdgeStyle;rounded=0;orthogonalLoop=1;jettySize=auto;html=1;exitX=0.5;exitY=1;exitDx=0;exitDy=0;entryX=0.5;entryY=0;entryDx=0;entryDy=0;" edge="1" parent="I-l6lPqi_V3V4UQrFhKZ-1" target="Sy5_hC4Q0OgB84gOwmTH-6">
          <mxGeometry relative="1" as="geometry">
            <mxPoint x="354" y="390" as="sourcePoint" />
            <mxPoint x="374" y="350" as="targetPoint" />
          </mxGeometry>
        </mxCell>
        <mxCell id="Sy5_hC4Q0OgB84gOwmTH-10" value="" style="edgeStyle=orthogonalEdgeStyle;rounded=0;orthogonalLoop=1;jettySize=auto;html=1;entryX=0.5;entryY=0;entryDx=0;entryDy=0;exitX=0;exitY=0.5;exitDx=0;exitDy=0;" edge="1" parent="I-l6lPqi_V3V4UQrFhKZ-1" source="Sy5_hC4Q0OgB84gOwmTH-1" target="Sy5_hC4Q0OgB84gOwmTH-11">
          <mxGeometry relative="1" as="geometry">
            <mxPoint x="50" y="100" as="sourcePoint" />
            <mxPoint x="50" y="180" as="targetPoint" />
          </mxGeometry>
        </mxCell>
        <mxCell id="Sy5_hC4Q0OgB84gOwmTH-11" value="BackSpace" style="rounded=0;whiteSpace=wrap;html=1;" vertex="1" parent="I-l6lPqi_V3V4UQrFhKZ-1">
          <mxGeometry x="-10" y="190" width="120" height="60" as="geometry" />
        </mxCell>
        <mxCell id="Sy5_hC4Q0OgB84gOwmTH-12" value="" style="edgeStyle=orthogonalEdgeStyle;rounded=0;orthogonalLoop=1;jettySize=auto;html=1;exitX=0.5;exitY=1;exitDx=0;exitDy=0;entryX=0.5;entryY=0;entryDx=0;entryDy=0;" edge="1" parent="I-l6lPqi_V3V4UQrFhKZ-1" source="Sy5_hC4Q0OgB84gOwmTH-11" target="Sy5_hC4Q0OgB84gOwmTH-13">
          <mxGeometry relative="1" as="geometry">
            <mxPoint x="49.5" y="260" as="sourcePoint" />
            <mxPoint x="50" y="340" as="targetPoint" />
          </mxGeometry>
        </mxCell>
        <mxCell id="Sy5_hC4Q0OgB84gOwmTH-13" value="LoginPage" style="rounded=0;whiteSpace=wrap;html=1;" vertex="1" parent="I-l6lPqi_V3V4UQrFhKZ-1">
          <mxGeometry x="-10" y="340" width="120" height="60" as="geometry" />
        </mxCell>
      </root>
    </mxGraphModel>
  </diagram>
</mxfile>
